# AST/ASF file generated using VICON BodyLanguage
# -----------------------------------------------
:version 1.10
:name VICON
:units
  mass 1.0
  length 0.45
  angle deg
:documentation
   .ast/.asf automatically generated from VICON data using
   VICON BodyBuilder and BodyLanguage model FoxedUp or BRILLIANT.MOD
:root
   order TX TY TZ RX RY RZ
   axis XYZ
   position 0 0 0  
   orientation 0 0 0 
:bonedata
  begin
     id 1 
     name lhipjoint
     direction 0.700308 -0.549349 0.455834 
     length 2.59063 
     axis 0 0 0  XYZ
  end
  begin
     id 2 
     name lfemur
     direction 0.34202 -0.939693 0  
     length 6.31066  
     axis 0 0 20  XYZ
    dof rx ry rz
    limits (-160.0 20.0)
           (-70.0 70.0)
           (-60.0 70.0)
  end
  begin
     id 3 
     name ltibia
     direction 0.34202 -0.939693 0   
     length 7.36093   
     axis 0 0 20   XYZ
    dof rx
    limits (-10.0 170.0)
  end
  begin
     id 4 
     name lfoot
     direction 0.0905332 -0.248738 0.96433   
     length 2.0233   
     axis -90 7.62852e-016 20   XYZ
    dof rx rz
    limits (-45.0 90.0)
           (-70.0 20.0)
  end
  begin
     id 5 
     name ltoes
     direction 1.53573e-011 -4.21855e-011 1   
     length 1.01524   
     axis -90 7.62852e-016 20   XYZ
    dof rx
    limits (-90.0 20.0)
  end
  begin
     id 6 
     name rhipjoint
     direction -0.61416 -0.607328 0.503944   
     length 2.34332  
     axis 0 0 0  XYZ 
  end
  begin
     id 7 
     name rfemur
     direction -0.34202 -0.939693 0   
     length 6.58548   
     axis 0 0 -20   XYZ
    dof rx ry rz
    limits (-160.0 20.0)
           (-70.0 70.0)
           (-70.0 60.0)
  end
  begin
     id 8 
     name rtibia
     direction -0.34202 -0.939693 0   
     length 7.20707   
     axis 0 0 -20   XYZ
    dof rx
    limits (-10.0 170.0)
 end
 begin
     id 9 
     name rfoot
     direction -0.136772 -0.375778 0.916561   
     length 1.92184  
     axis -90 -7.62852e-016 -20   XYZ
    dof rx rz
    limits (-45.0 90.0)
           (-20.0 70.0)
  end
  begin
     id 10 
     name rtoes
     direction -1.53535e-011 -4.21828e-011 1   
     length 0.951089   
     axis -90 -7.62852e-016 -20   XYZ
    dof rx
    limits (-90.0 20.0)
  end
  begin
     id 11 
     name lowerback
     direction -0.0444974 0.988086 -0.147332   
     length 1.9609   
     axis 0 0 0   XYZ
    dof rx ry rz
    limits (-20.0 45.0)
           (-30.0 30.0)
           (-30.0 30.0)
  end
  begin
     id 12 
     name upperback
     direction 0.00613146 0.999513 0.0306081   
     length 1.94944   
     axis 0 0 0   XYZ
    dof rx ry rz
    limits (-20.0 45.0)
           (-30.0 30.0)
           (-30.0 30.0)
  end
  begin
     id 13 
     name thorax
     direction 0.0254621 0.994518 0.101418   
     length 2.0119   
     axis 0 0 0   XYZ
    dof rx ry rz
    limits (-20.0 45.0)
           (-30.0 30.0)
           (-30.0 30.0)
  end
  begin
     id 14 
     name lowerneck
     direction 0.0168698 0.977854 0.208608   
     length 1.6375   
     axis 0 0 0   XYZ
    dof rx ry rz
    limits (-20.0 45.0)
           (-30.0 30.0)
           (-30.0 30.0)
  end
  begin
     id 15 
     name upperneck
     direction -0.0283988 0.989338 -0.142843   
     length 1.6851   
     axis 0 0 0   XYZ
    dof rx ry rz
    limits (-20.0 45.0)
           (-30.0 30.0)
           (-30.0 30.0)
  end
  begin
     id 16
     name head
     direction -0.0129422 0.99741 -0.0707489  
     length 1.69029  
     axis 0 0 0   XYZ
    dof rx ry rz
    limits (-20.0 45.0)
           (-30.0 30.0)
           (-30.0 30.0)
  end
  begin
     id 17 
     name lclavicle
     direction 0.820295 0.564628 -0.0911715  
     length 3.16484  
     axis 0 0 0   XYZ
    dof ry rz
    limits (-20.0 10.0)
           (0.0 20.0)
  end
  begin
     id 18 
     name lhumerus
     direction 1 -4.48969e-011 1.00186e-027   
     length 5.17853   
     axis 180 -30 -90   XYZ
    dof rx ry rz
    limits (-60.0 90.0)
           (-90.0 90.0)
           (-90.0 90.0)
  end
  begin
     id 19
     name lradius
     direction 1 -4.48966e-011 -1.52922e-027   
     length 3.40399   
     axis 180 -30 -90   XYZ
    dof rx
    limits (-10.0 170.0)
  end
  begin
     id 20
     name lwrist
     direction 1 -4.48981e-011 -3.80893e-027   
     length 1.70199   
     axis 1.1049e-015 90 90   XYZ
    dof ry
    limits (-180.0 0.0)
 end
  begin
     id 21 
     name lhand
     direction 1 -4.48957e-011 -7.61786e-027   
     length 0.708964   
     axis 4.86085e-015 90 90   XYZ
    dof rx rz
    limits (-90.0 90.0)
           (-45.0 45.0)
  end
  begin
     id 22 
     name lfingers
     direction 1 -4.48929e-011 -1.52357e-026   
     length 0.571585   
     axis 9.7217e-015 90 90   XYZ
    dof rx
    limits (0.0 90.0)
  end
  begin
     id 23
     name lthumb
     direction 0.707107 -6.34905e-011 0.707107   
     length 0.820685   
     axis -90 45 2.85299e-015   XYZ
    dof rx rz
    limits (-45.0 45.0)
           (-45.0 45.0)
  end
  begin
     id 24 
     name rclavicle
     direction -0.858602 0.463947 -0.218075   
     length 3.35137  
     axis 0 0 0   XYZ 
    dof ry rz
    limits (-10.0 20.0)
           (-20.0 0.0)
  end
  begin
     id 25 
     name rhumerus
     direction -1 -4.48969e-011 -1.98511e-027  
     length 5.42351   
     axis 180 30 90   XYZ
    dof rx ry rz
    limits (-90.0 60.0)
           (-90.0 90.0)
           (-90.0 90.0)
  end
  begin
     id 26 
     name rradius
     direction -1 -4.48961e-011 -2.82624e-027   
     length 3.42066   
     axis 180 30 90   XYZ
    dof rx
    limits (-10.0 170.0)
  end
  begin
     id 27 
     name rwrist
     direction -1 -4.48966e-011 -3.80893e-027   
     length 1.71033   
     axis 1.1049e-015 -90 -90   XYZ
    dof ry
    limits (-180.0 0.0)
  end
  begin
     id 28
     name rhand
     direction -1 -4.48964e-011 -7.61786e-027   
     length 0.743608   
     axis 4.86085e-015 -90 -90   XYZ
    dof rx rz
    limits (-90.0 90.0)
           (-45.0 45.0)
  end
  begin
     id 29
     name rfingers
     direction -1 -4.48961e-011 -1.52357e-026   
     length 0.599516   
     axis 9.7217e-015 -90 -90   XYZ
    dof rx
    limits (0.0 90.0)
  end
  begin
     id 30
     name rthumb
     direction -0.707107 -6.34913e-011 0.707107   
     length 0.860789   
     axis -90 -45 -2.85299e-015   XYZ
    dof rx rz
    limits (-45.0 45.0)
           (-45.0 45.0)
  end
:hierarchy
  begin
    root lhipjoint rhipjoint lowerback
    lhipjoint lfemur
    lfemur ltibia
    ltibia lfoot
    lfoot ltoes
    rhipjoint rfemur
    rfemur rtibia
    rtibia rfoot
    rfoot rtoes
    lowerback upperback
    upperback thorax
    thorax lowerneck lclavicle rclavicle
    lowerneck upperneck
    upperneck head
    lclavicle lhumerus
    lhumerus lradius
    lradius lwrist
    lwrist lhand lthumb
    lhand lfingers
    rclavicle rhumerus
    rhumerus rradius
    rradius rwrist
    rwrist rhand rthumb
    rhand rfingers
  end

#!OML:ASF E:\mmandel\Project 1\Capture day 1\Session 2\Subject.ASF
:FULLY-SPECIFIED
:DEGREES
256
root -1.78628 1.93994 -7.20725 -54.5062 48.0631 41.0997
lowerback 9.7541 3.76754 7.9926
upperback 4.84614 5.83939 1.61155
thorax 0.245891 3.12119 -3.29522
lowerneck -7.73623 2.21771 6.66164
upperneck 44.4607 4.04528 -1.66856
head 18.1175 3.50088 -1.01823
rclavicle 1.74931e-014 -4.77083e-014
rhumerus 9.25615 2.69668 -74.1413
rradius 15.9587
rwrist 10.1381
rhand 8.23044 22.3928
rfingers 7.12502
rthumb 33.4461 -4.51219
lclavicle 1.74931e-014 -4.77083e-014
lhumerus 7.75603 -42.5258 56.5111
lradius 44.808
lwrist 21.9361
lhand -27.5318 -45.6908
lfingers 7.12502
lthumb -0.933727 -15.713
rfemur -20.08 -13.7373 3.5797
rtibia 22.6472
rfoot -16.8936 -32.1714
rtoes 11.9379
lfemur -25.1262 36.0385 3.16172
ltibia 86.9878
lfoot 27.4227 -17.5211
ltoes 0.279866
257
root -1.77944 1.93172 -7.21621 -54.7676 48.1099 41.0034
lowerback 9.95658 3.76933 8.10571
upperback 5.08552 5.86747 1.58443
thorax 0.405231 3.15612 -3.39014
lowerneck -7.73391 2.20716 6.68323
upperneck 44.4441 4.04202 -1.6918
head 18.1076 3.49939 -1.03405
rclavicle -8.42847e-014 6.75868e-015
rhumerus 9.32728 1.39504 -74.4654
rradius 15.5179
rwrist 11.6526
rhand 7.87822 22.5076
rfingers 7.12502
rthumb 33.1112 -4.46908
lclavicle -8.42847e-014 6.75868e-015
lhumerus 8.06514 -42.1811 56.7792
lradius 44.1588
lwrist 22.125
lhand -27.8979 -45.769
lfingers 7.12502
lthumb -1.28733 -15.7931
rfemur -19.9793 -13.9568 3.87927
rtibia 23.2548
rfoot -15.8775 -31.6889
rtoes 10.893
lfemur -25.0763 35.84 3.16608
ltibia 87.1064
lfoot 26.8822 -18.3955
ltoes -3.03386
258
root -1.77015 1.92533 -7.22388 -55.026 48.2992 40.7026
lowerback 9.89832 3.71543 8.23182
upperback 5.32237 5.79493 1.52028
thorax 0.69863 3.14601 -3.50116
lowerneck -7.259 2.11095 7.1644
upperneck 43.7933 4.05021 -2.35081
head 17.6189 3.46698 -1.44808
rclavicle -4.77083e-014 -5.24792e-014
rhumerus 9.47192 -0.214396 -74.8714
rradius 14.9577
rwrist 13.5117
rhand 7.70397 22.7532
rfingers 7.12502
rthumb 32.9455 -4.25847
lclavicle -4.77083e-014 -5.24792e-014
lhumerus 8.34177 -41.8302 57.0153
lradius 43.6436
lwrist 22.2559
lhand -28.2755 -45.8037
lfingers 7.12502
lthumb -1.65197 -15.8303
rfemur -19.8953 -14.5919 4.19098
rtibia 23.791
rfoot -14.7464 -31.0262
rtoes 9.7086
lfemur -25.4226 35.5217 2.90872
ltibia 87.2998
lfoot 27.2976 -16.9394
ltoes 2.29437
259
root -1.76408 1.92208 -7.2371 -55.1753 48.5235 40.3239
lowerback 9.65889 3.60863 8.34913
upperback 5.5163 5.63182 1.43468
thorax 1.03616 3.08978 -3.61173
lowerneck -6.99361 2.10056 7.50257
upperneck 43.5946 4.09975 -2.64837
head 17.4559 3.50065 -1.64448
rclavicle -1.06549e-013 1.07344e-014
rhumerus 9.73989 -1.94972 -75.4505
rradius 14.2806
rwrist 15.5375
rhand 7.56993 22.8584
rfingers 7.12502
rthumb 32.818 -4.18001
lclavicle -1.06549e-013 1.07344e-014
lhumerus 8.68203 -41.5811 57.0087
lradius 43.2334
lwrist 22.6049
lhand -28.3525 -45.53
lfingers 7.12502
lthumb -1.72632 -15.5572
rfemur -19.9774 -15.0631 4.45241
rtibia 24.384
rfoot -13.9728 -30.5504
rtoes 9.42683
lfemur -25.9817 35.407 2.53306
ltibia 87.5013
lfoot 14.9529 -29.7484
ltoes -38.5435
260
root -1.76725 1.92237 -7.25569 -55.4431 48.6345 39.9422
lowerback 9.57696 3.54296 8.64438
upperback 5.72674 5.55541 1.26574
thorax 1.34353 3.08514 -3.92405
lowerneck -7.76878 2.26329 7.20903
upperneck 44.7546 4.10539 -1.80837
head 18.3453 3.62113 -1.16447
rclavicle 7.95139e-015 2.0276e-014
rhumerus 10.0421 -4.52918 -76.3846
rradius 13.5468
rwrist 18.194
rhand 7.43461 22.99
rfingers 7.12502
rthumb 32.6893 -4.07529
lclavicle 7.95139e-015 2.0276e-014
lhumerus 9.0355 -41.504 56.8109
lradius 42.8674
lwrist 22.7784
lhand -28.4749 -45.3436
lfingers 7.12502
lthumb -1.84454 -15.3718
rfemur -19.844 -15.4014 4.78162
rtibia 24.7859
rfoot -13.2503 -30.2573
rtoes 9.5663
lfemur -26.2297 35.4019 2.40076
ltibia 87.5712
lfoot 25.567 -19.2393
ltoes -5.99997
261
root -1.75179 1.91894 -7.25315 -55.87 48.6764 39.7368
lowerback 9.7749 3.47426 8.74656
upperback 6.01309 5.48772 1.23927
thorax 1.54287 3.07811 -4.00356
lowerneck -7.49317 2.27042 8.03464
upperneck 44.5347 4.38569 -2.82623
head 18.2224 3.73797 -1.75817
rclavicle -7.4743e-014 3.1408e-014
rhumerus 10.458 -6.06394 -76.9165
rradius 12.8964
rwrist 19.9037
rhand 7.26065 22.9658
rfingers 7.12502
rthumb 32.5238 -4.1337
lclavicle -7.4743e-014 3.1408e-014
lhumerus 9.2491 -41.1631 57.1345
lradius 42.0543
lwrist 22.7902
lhand -28.798 -45.701
lfingers 7.12502
lthumb -2.1566 -15.7322
rfemur -19.4194 -15.8837 5.12526
rtibia 25.1426
rfoot -12.4826 -29.6583
rtoes 9.5764
lfemur -26.064 35.3447 2.62185
ltibia 87.7461
lfoot 9.56912 -32.2428
ltoes -43.8681
262
root -1.77296 1.91435 -7.2664 -56.0542 48.8744 39.1942
lowerback 9.42039 3.38489 8.77684
upperback 6.21149 5.3266 1.2131
thorax 1.93167 3.02255 -3.99857
lowerneck -7.21732 2.27186 8.56679
upperneck 44.3195 4.55961 -3.45285
head 18.0738 3.81356 -2.12785
rclavicle -4.77083e-015 3.26007e-014
rhumerus 11.2808 -6.12684 -76.9142
rradius 12.0879
rwrist 20.0572
rhand 7.06614 22.8215
rfingers 7.12502
rthumb 32.3386 -4.31597
lclavicle -4.77083e-015 3.26007e-014
lhumerus 9.40964 -40.7004 57.4548
lradius 41.336
lwrist 22.8465
lhand -28.9461 -46.239
lfingers 7.12502
lthumb -2.2997 -16.2716
rfemur -19.3078 -16.2725 5.57255
rtibia 25.426
rfoot -12.3484 -29.3946
rtoes 9.75139
lfemur -26.7998 34.6536 2.00655
ltibia 87.8285
lfoot 9.44431 -31.8737
ltoes -43.2081
263
root -1.76965 1.91223 -7.27631 -56.5319 48.685 38.5576
lowerback 9.23785 3.25894 9.38007
upperback 6.50604 5.17285 1.22381
thorax 2.38742 2.99816 -4.27858
lowerneck -6.52064 2.32428 8.64408
upperneck 43.7995 4.67125 -3.41961
head 17.5834 3.86707 -2.11506
rclavicle 2.70347e-014 2.10712e-014
rhumerus 11.5181 -10.2349 -78.4308
rradius 11.5524
rwrist 24.74
rhand 6.74343 23.342
rfingers 7.12502
rthumb 32.0314 -3.8576
lclavicle 2.70347e-014 2.10712e-014
lhumerus 9.61016 -40.1563 57.6633
lradius 40.728
lwrist 22.9096
lhand -28.8051 -46.3961
lfingers 7.12502
lthumb -2.16346 -16.4273
rfemur -19.1089 -16.3416 6.32436
rtibia 25.7995
rfoot -11.8342 -29.3706
rtoes 9.26028
lfemur -27.1953 34.4956 2.29928
ltibia 88.1343
lfoot 23.8404 -21.704
ltoes -10.8635
264
root -1.76842 1.90978 -7.2873 -56.732 48.639 38.2661
lowerback 9.25685 3.22254 9.72704
upperback 6.78472 5.14673 1.10545
thorax 2.72001 3.03124 -4.576
lowerneck -6.42733 2.32532 8.84315
upperneck 43.7425 4.63999 -3.41781
head 17.5312 3.88607 -2.15643
rclavicle 1.59028e-014 -3.97569e-015
rhumerus 12.2714 -12.6477 -79.3242
rradius 10.8257
rwrist 27.4156
rhand 6.67785 23.3975
rfingers 7.12502
rthumb 31.969 -3.81471
lclavicle 1.59028e-014 -3.97569e-015
lhumerus 9.79945 -39.8167 57.839
lradius 40.1435
lwrist 22.863
lhand -28.8173 -46.5833
lfingers 7.12502
lthumb -2.17528 -16.6146
rfemur -19.0343 -16.6134 6.85079
rtibia 26.1088
rfoot -10.531 -29.2157
rtoes 7.39541
lfemur -27.5336 34.4169 2.28497
ltibia 88.3749
lfoot 23.1338 -22.744
ltoes -13.3917
265
root -1.76333 1.90855 -7.29927 -56.9887 48.672 38.1862
lowerback 9.72121 3.13645 9.70227
upperback 7.00029 5.08077 1.15048
thorax 2.67787 3.00839 -4.5372
lowerneck -6.31939 2.35732 8.60272
upperneck 43.8883 4.70729 -3.2182
head 17.5804 3.91537 -2.00812
rclavicle -4.13472e-014 -7.71285e-014
rhumerus 12.8454 -13.8969 -79.7795
rradius 10.1538
rwrist 29.2012
rhand 6.34254 23.1934
rfingers 7.12502
rthumb 31.6497 -4.08223
lclavicle -4.13472e-014 -7.71285e-014
lhumerus 9.84777 -39.6728 58.1884
lradius 39.3733
lwrist 23.1526
lhand -29.1358 -46.96
lfingers 7.12502
lthumb -2.48288 -16.9947
rfemur -18.8114 -16.8788 7.14004
rtibia 26.5587
rfoot -9.61705 -28.7737
rtoes 5.56496
lfemur -27.4628 34.2782 2.25728
ltibia 88.5221
lfoot 25.8081 -17.9223
ltoes 5.61385
266
root -1.75095 1.9027 -7.30933 -57.3006 48.7637 38.0281
lowerback 10.3201 3.12918 9.86407
upperback 7.16491 5.1587 1.00784
thorax 2.57006 3.06732 -4.81624
lowerneck -6.26118 2.27136 8.88713
upperneck 44.1078 4.4993 -3.12859
head 17.6898 3.90601 -2.05016
rclavicle 3.18055e-015 1.59028e-014
rhumerus 12.9454 -14.2102 -80.1513
rradius 9.69048
rwrist 29.6454
rhand 5.44474 22.7517
rfingers 7.12502
rthumb 30.7941 -4.68882
lclavicle 3.18055e-015 1.59028e-014
lhumerus 9.86986 -39.6818 58.5973
lradius 38.6196
lwrist 22.8683
lhand -29.4892 -47.4074
lfingers 7.12502
lthumb -2.82419 -17.4463
rfemur -18.5446 -16.9175 7.36615
rtibia 27.0809
rfoot -9.27754 -28.4693
rtoes 6.1451
lfemur -27.4565 34.0099 2.16578
ltibia 88.6404
lfoot 25.9298 -17.7696
ltoes 7.31364
